<svg width="25" height="17" viewBox="0 0 25 17" fill="none" xmlns="http://www.w3.org/2000/svg">
<g clip-path="url(#clip0_802_271)">
<path d="M23.0844 16.985C21.9152 16.985 21.2218 16.3835 21.1688 15.5172H22.2866C22.2866 15.806 22.4458 16.1904 23.1375 16.2142C23.6168 16.2142 23.8821 15.9255 23.8821 15.7085C23.829 15.3718 23.4027 15.348 22.9782 15.2744C22.4989 15.2045 22.1274 15.107 21.8604 14.9875C21.4889 14.7943 21.2748 14.3842 21.2748 13.952C21.2748 13.1812 21.9152 12.5797 23.0313 12.5797C24.0962 12.5797 24.7878 13.1334 24.8389 13.9758H23.776C23.776 13.7605 23.7229 13.3983 23.0843 13.3983C22.658 13.3983 22.3928 13.47 22.3397 13.7826C22.3397 14.2168 23.2436 14.1928 23.9352 14.3602C24.5737 14.5294 24.9999 14.9378 24.9999 15.5172C24.9999 16.5767 24.1492 16.985 23.0844 16.985ZM2.71338 9.87678L6.38364 7.73389L8.35227 11.1294H3.40498" fill="#1D1E20"/>
<path d="M10.4314 16.8572V12.5715V16.8572Z" fill="#1D1E20"/>
<path d="M10.4314 16.8572V12.5715" stroke="#1D1E20"/>
<path d="M1.01002 14.7777C1.01002 15.4509 1.59545 16.0046 2.23214 16.0046C2.92557 16.0046 3.45617 15.4509 3.45617 14.7777C3.45617 14.1284 2.92557 13.5509 2.23214 13.5509C1.59545 13.5509 1.01002 14.1284 1.01002 14.7777ZM2.17914 16.9923C1.00994 16.9923 0 16.0046 0 14.7777C0 13.5509 1.01002 12.5871 2.17914 12.5871C2.65848 12.5871 3.08474 12.7085 3.45617 12.9715V12.6348H4.52102V16.8948H3.45625V16.63C3.13791 16.8709 2.65856 16.9923 2.17922 16.9923H2.17914ZM16.3849 11.1284L11.2784 2.17437L14.9486 0.00759888L21.3322 11.1284H16.3849ZM5.90422 14.7777C5.90422 15.4509 6.43674 16.0046 7.12825 16.0046C7.76493 16.0046 8.35228 15.4509 8.35228 14.7777C8.35228 14.1284 7.76493 13.5509 7.12825 13.5509C6.43665 13.5509 5.90422 14.1284 5.90422 14.7777ZM7.07517 16.9923C5.85114 16.9923 4.89428 16.0046 4.89428 14.7777C4.89428 13.5509 5.85114 12.5871 7.07517 12.5871C7.55268 12.5871 7.97902 12.7085 8.35228 12.9715V11.167H9.41531V16.8948H8.3522V16.63C7.97894 16.8709 7.55268 16.9923 7.07508 16.9923H7.07517ZM7.02275 6.04965L10.746 3.93256L14.8426 11.1282H10.9583V12.1876H9.89524V11.1282L7.02275 6.04965ZM24.3102 12.221C24.0432 12.221 23.7779 11.98 23.7779 11.6912C23.7779 11.4024 24.0432 11.1615 24.3102 11.1615C24.6286 11.1615 24.8428 11.4025 24.8428 11.6912C24.8428 11.9799 24.6286 12.2211 24.3102 12.2211V12.221ZM24.3102 11.2351C24.0432 11.2351 23.884 11.4503 23.884 11.6912C23.884 11.9322 24.0432 12.1493 24.3102 12.1493C24.5756 12.1493 24.7348 11.9323 24.7348 11.6912C24.7348 11.4502 24.5756 11.2351 24.3102 11.2351Z" fill="#1D1E20"/>
<path d="M24.4202 11.9819L24.314 11.7409H24.2079V11.9819H24.1274V11.4043H24.3671C24.4202 11.4043 24.5263 11.478 24.5263 11.5735C24.5263 11.6691 24.4732 11.7171 24.4202 11.7409L24.5263 11.9819H24.4202ZM24.314 11.478H24.2079V11.6692H24.314C24.4202 11.6692 24.4202 11.6453 24.4202 11.5735C24.4202 11.524 24.4202 11.478 24.314 11.478ZM17.2846 14.7778C17.2846 15.4509 17.8171 16.0046 18.5086 16.0046C19.1471 16.0046 19.7308 15.4509 19.7308 14.7778C19.7308 14.1285 19.1471 13.5509 18.5086 13.5509C17.817 13.5509 17.2846 14.1285 17.2846 14.7778ZM18.4538 16.9924C17.2316 16.9924 16.2747 16.0046 16.2747 14.7778C16.2747 13.5509 17.2316 12.5871 18.4537 12.5871C18.9331 12.5871 19.3594 12.7085 19.7308 12.9715V12.6349H20.7426V16.8949H19.7309V16.63C19.3594 16.871 18.9331 16.9924 18.4537 16.9924H18.4538ZM12.3941 14.7778C12.3941 15.4509 12.9795 16.0046 13.618 16.0046C14.3097 16.0046 14.842 15.4509 14.842 14.7778C14.842 14.1285 14.3096 13.5509 13.618 13.5509C12.9795 13.5509 12.3941 14.1285 12.3941 14.7778ZM14.842 11.1671H15.9051V16.8949H14.842V16.63C14.5219 16.871 14.0956 16.9924 13.618 16.9924C12.3941 16.9924 11.384 16.0046 11.384 14.7778C11.384 13.5509 12.3941 12.5871 13.618 12.5871C14.0955 12.5871 14.5219 12.7085 14.842 12.9715V11.1671Z" fill="#1D1E20"/>
</g>
<defs>
<clipPath id="clip0_802_271">
<rect width="25" height="17" fill="white"/>
</clipPath>
</defs>
</svg>
