<svg width="15" height="15" viewBox="0 0 15 15" fill="none" xmlns="http://www.w3.org/2000/svg">
<path d="M7.18249 1.74312H4.84562C2.92374 1.74312 1.71875 3.10375 1.71875 5.03V10.2262C1.71875 12.1525 2.91812 13.5131 4.84562 13.5131H10.3606C12.2887 13.5131 13.4881 12.1525 13.4881 10.2262V7.70875M9.47805 2.87657L12.3318 5.73032M5.51717 6.82557L10.1878 2.15494C10.7697 1.57369 11.7128 1.57369 12.2947 2.15494L13.0553 2.91556C13.6372 3.49744 13.6372 4.44119 13.0553 5.02244L8.36217 9.71557C8.1078 9.96994 7.7628 10.1131 7.4028 10.1131H5.06155L5.1203 7.75057C5.12905 7.40307 5.27092 7.07182 5.51717 6.82557Z" stroke="#FEFEFE" stroke-width="1.2" stroke-linecap="round" stroke-linejoin="round"/>
</svg>
