<svg width="25" height="9" viewBox="0 0 25 9" fill="none" xmlns="http://www.w3.org/2000/svg">
<g clip-path="url(#clip0_802_287)">
<path d="M6.25414 0.251678C6.87323 0.251678 7.37518 0.786123 7.37518 1.4456C7.37518 2.10517 6.87323 2.63961 6.25414 2.63961H1.12743C0.508252 2.63961 0.00634766 2.10517 0.00634766 1.4456C0.00634766 0.786123 0.508252 0.251678 1.12739 0.251678H6.25414Z" fill="#1D1E20"/>
<path d="M5.73874 3.38037C6.35796 3.38037 6.85987 3.91491 6.85987 4.57438C6.85987 5.23386 6.35796 5.76839 5.73874 5.76839H2.82081C2.57193 5.76934 2.36823 5.97903 2.3587 6.24144V7.79765C2.3587 8.45704 1.8568 8.99157 1.23778 8.99157C0.618605 8.99157 0.116699 8.45704 0.116699 7.79765V5.14925C0.116699 4.17237 0.860212 3.38033 1.77743 3.38033H5.73874V3.38037ZM7.88419 1.19401C7.88419 0.534617 8.38609 0 9.00523 0C9.62445 0 10.1263 0.534617 10.1263 1.19401V7.80599C10.1263 8.46547 9.62449 9 9.00523 9C8.38613 9 7.88419 8.46543 7.88419 7.80599V1.19401ZM21.6817 6.63176L22.1322 6.63056C22.1765 6.63051 22.2188 6.61178 22.2501 6.57848C22.2814 6.54518 22.2989 6.50003 22.299 6.45294C22.2997 6.42961 22.2956 6.4064 22.2872 6.38487L20.612 3.38674L17.9951 8.21304C17.7929 8.58625 17.4299 8.79908 17.0532 8.80978C17.042 8.81147 17.0306 8.81231 17.0193 8.81232H12.7604C11.8431 8.81232 11.0996 8.02033 11.0996 7.04345V1.1941C11.0996 0.53466 11.6015 4.29728e-05 12.2206 4.29728e-05C12.8397 4.29728e-05 13.3416 0.53466 13.3416 1.19405V5.93199C13.3425 6.1972 13.5393 6.41428 13.7858 6.42417H16.1682C16.2295 6.40409 16.4169 6.33625 16.474 6.24178L19.4664 0.724489C19.6935 0.30923 20.1159 0.0296675 20.5993 0.0296675C21.083 0.0296675 21.5055 0.30966 21.7315 0.725779L24.6475 5.94003C24.8724 6.25154 24.9941 6.63365 24.9936 7.02664C24.9936 8.01285 24.243 8.81223 23.3172 8.81223H19.9183C19.3527 8.81223 18.8946 8.32405 18.8946 7.72185C18.8946 7.11985 19.3527 6.63176 19.9183 6.63176H21.6817Z" fill="#1D1E20"/>
</g>
<defs>
<clipPath id="clip0_802_287">
<rect width="25" height="9" fill="white"/>
</clipPath>
</defs>
</svg>
