<svg width="13" height="13" viewBox="0 0 9 9" fill="none" xmlns="http://www.w3.org/2000/svg">
<path d="M3.54894 0.927052C3.8483 0.00574112 5.1517 0.00573993 5.45106 0.927051L5.73483 1.80041C5.8687 2.21243 6.25266 2.49139 6.68588 2.49139H7.60419C8.57291 2.49139 8.97568 3.73101 8.19197 4.30041L7.44905 4.84017C7.09856 5.09481 6.9519 5.54618 7.08578 5.9582L7.36955 6.83156C7.6689 7.75287 6.61442 8.519 5.83071 7.94959L5.08779 7.40983C4.7373 7.15519 4.2627 7.15519 3.91221 7.40983L3.16929 7.94959C2.38558 8.51899 1.3311 7.75287 1.63045 6.83156L1.91422 5.9582C2.0481 5.54618 1.90144 5.09481 1.55095 4.84017L0.808031 4.30041C0.0243175 3.73101 0.427093 2.49139 1.39582 2.49139H2.31412C2.74734 2.49139 3.1313 2.21243 3.26517 1.80041L3.54894 0.927052Z" fill="#FF981F"/>
</svg>
