<svg width="16" height="16" viewBox="0 0 16 16" fill="none" xmlns="http://www.w3.org/2000/svg">
<path d="M0.671222 8.00955C0.524653 4.15055 3.9048 0.584363 7.76768 0.538096C9.73649 0.370172 11.6519 1.13473 13.1419 2.38169C12.5307 3.05371 11.9088 3.71796 11.2446 4.33983C9.93289 3.54292 8.35363 2.93561 6.82065 3.47497C4.34806 4.17902 2.85067 7.09843 3.76567 9.5173C4.52343 12.0436 7.5962 13.43 10.0044 12.3688C11.2514 11.9223 12.0735 10.7717 12.4343 9.53542C11.0051 9.50695 9.57569 9.52474 8.14656 9.48527C8.143 8.63498 8.13944 7.78792 8.143 6.93762C10.5263 6.93407 12.9131 6.92695 15.3 6.9483C15.4465 9.03165 15.1392 11.2612 13.7848 12.9334C11.9302 15.3202 8.50376 16.0207 5.71636 15.0843C2.75813 14.1127 0.606835 11.1325 0.671222 8.00955Z" fill="#FEFEFE"/>
</svg>
