<svg width="20" height="20" viewBox="0 0 20 20" fill="none" xmlns="http://www.w3.org/2000/svg">
<path fill-rule="evenodd" clip-rule="evenodd" d="M9.80075 17.3782C7.99192 16.2649 6.30918 14.9547 4.78266 13.471C3.70945 12.4024 2.89243 11.0998 2.39417 9.66284C1.49754 6.87526 2.54486 3.68403 5.47585 2.7396C7.01626 2.24369 8.69859 2.52713 9.99667 3.50124C11.2952 2.52832 12.977 2.24499 14.5175 2.7396C17.4485 3.68403 18.5033 6.87526 17.6067 9.66284C17.1084 11.0998 16.2914 12.4024 15.2182 13.471C13.6917 14.9547 12.0089 16.2649 10.2001 17.3782L10.0042 17.5L9.80075 17.3782Z" stroke="#000000" stroke-width="1.5" stroke-linecap="round" stroke-linejoin="round"/>
<path d="M13.116 5.8775C14.0037 6.16109 14.6345 6.95809 14.7133 7.89582" stroke="#000000" stroke-width="1.5" stroke-linecap="round" stroke-linejoin="round"/>
</svg>
