<svg width="14" height="14" viewBox="0 0 14 14" fill="none" xmlns="http://www.w3.org/2000/svg">
<path fill-rule="evenodd" clip-rule="evenodd" d="M2.47266 6.06161C2.48106 3.58793 4.49318 1.58943 6.96687 1.59784C9.44055 1.60624 11.4391 3.61836 11.4307 6.09206V6.14275C11.4002 7.75071 10.5023 9.23698 9.40165 10.3986C8.77211 11.0523 8.06914 11.631 7.30672 12.1232C7.10285 12.2995 6.80045 12.2995 6.59657 12.1232C5.45995 11.3834 4.46237 10.4493 3.64947 9.3638C2.92494 8.41717 2.51359 7.26817 2.47266 6.07683V6.06161Z" stroke="#FEFEFE" stroke-width="1.2" stroke-linecap="round" stroke-linejoin="round"/>
<path d="M6.95162 7.5833C7.74443 7.5833 8.38713 6.9406 8.38713 6.14779C8.38713 5.35498 7.74443 4.71228 6.95162 4.71228C6.15881 4.71228 5.51611 5.35498 5.51611 6.14779C5.51611 6.9406 6.15881 7.5833 6.95162 7.5833Z" stroke="#FEFEFE" stroke-width="1.2" stroke-linecap="round" stroke-linejoin="round"/>
</svg>
