<svg width="13" height="13" viewBox="0 0 9 9" fill="none" xmlns="http://www.w3.org/2000/svg">
<path d="M3.78671 1.00431C4.01122 0.313322 4.98878 0.313323 5.21329 1.0043L5.49706 1.87766C5.66441 2.39269 6.14435 2.74139 6.68588 2.74139H7.60419C8.33073 2.74139 8.63281 3.6711 8.04502 4.09815L7.3021 4.63792C6.86399 4.95622 6.68067 5.52043 6.84801 6.03546L7.13178 6.90881C7.3563 7.5998 6.56544 8.17439 5.97765 7.74734L5.23473 7.20758C4.79662 6.88927 4.20338 6.88927 3.76527 7.20758L3.02235 7.74734C2.43456 8.17439 1.6437 7.5998 1.86822 6.90881L2.15199 6.03546C2.31933 5.52043 2.13601 4.95622 1.6979 4.63792L0.954978 4.09815C0.367192 3.6711 0.669274 2.74139 1.39582 2.74139H2.31412C2.85565 2.74139 3.33559 2.39269 3.50294 1.87766L3.78671 1.00431Z" stroke="#8F959E" stroke-width="0.5"/>
</svg>
