<svg width="14" height="12" viewBox="0 0 14 12" fill="none" xmlns="http://www.w3.org/2000/svg">
<path d="M11.8912 3.62241C11.8912 3.74272 11.8912 3.86303 11.8912 3.96616C11.8912 7.52397 9.17556 11.6318 4.22556 11.6318C2.69587 11.6318 1.2865 11.1849 0.083374 10.4287C0.289624 10.4458 0.513061 10.463 0.719311 10.463C1.974 10.463 3.14275 10.0333 4.07087 9.31147C2.88494 9.29428 1.88806 8.50365 1.5615 7.43803C1.73337 7.4724 1.88806 7.48959 2.07712 7.48959C2.31775 7.48959 2.55837 7.45522 2.78181 7.38647C1.54431 7.14584 0.616186 6.06303 0.616186 4.75678C0.616186 4.73959 0.616186 4.73959 0.616186 4.72241C0.977124 4.92866 1.38962 5.04897 1.8365 5.06615C1.11462 4.58491 0.633374 3.75991 0.633374 2.81459C0.633374 2.31616 0.770874 1.85209 0.994311 1.45678C2.31775 3.08959 4.3115 4.15522 6.54587 4.27553C6.49431 4.08647 6.47712 3.86303 6.47712 3.65678C6.47712 2.16147 7.68025 0.958344 9.17556 0.958344C9.949 0.958344 10.6537 1.28491 11.1349 1.80053C11.7537 1.68022 12.3209 1.45678 12.8537 1.14741C12.6474 1.78334 12.2177 2.29897 11.6677 2.64272C12.2177 2.57397 12.7334 2.43647 13.2146 2.21303C12.8709 2.76303 12.424 3.24428 11.8912 3.62241Z" fill="#FEFEFE"/>
</svg>
