<svg width="30" height="10" viewBox="0 0 30 10" fill="none" xmlns="http://www.w3.org/2000/svg">
<path d="M27.7775 9.71002L27.4963 8.30377H24.3538L23.8538 9.70002L21.335 9.70502C22.5341 6.82145 23.7358 3.93895 24.94 1.05752C25.145 0.568774 25.5088 0.320025 26.045 0.322525C26.455 0.326275 27.1237 0.326274 28.0525 0.323774L30 9.70627L27.7775 9.71002ZM25.0612 6.37752H27.0863L26.33 2.85252L25.0612 6.37752ZM8.825 0.321275L11.3575 0.323774L7.4425 9.71127L4.87875 9.70877C4.23406 7.22917 3.59739 4.74749 2.96875 2.26377C2.84375 1.76877 2.59625 1.42252 2.12 1.25877C1.69625 1.11252 0.99 0.887525 0 0.581275V0.325025H4.04625C4.74625 0.325025 5.155 0.663774 5.28625 1.35877C5.41875 2.05502 5.75125 3.82752 6.28625 6.67627L8.825 0.321275ZM14.8375 0.323774L12.835 9.70877L10.425 9.70627L12.425 0.321275L14.8375 0.323774ZM19.725 0.150024C20.4462 0.150024 21.355 0.375025 21.8775 0.581275L21.455 2.52752C20.9825 2.33752 20.205 2.08127 19.5513 2.09002C18.6012 2.10627 18.0138 2.50502 18.0138 2.88752C18.0138 3.51002 19.0337 3.82377 20.0837 4.50377C21.2825 5.27877 21.44 5.97502 21.425 6.73127C21.4087 8.30127 20.0837 9.85002 17.2887 9.85002C16.0138 9.83127 15.5538 9.72377 14.5138 9.35502L14.9538 7.32377C16.0125 7.76752 16.4613 7.90877 17.3662 7.90877C18.195 7.90877 18.9062 7.57377 18.9125 6.99002C18.9175 6.57502 18.6625 6.36877 17.7325 5.85627C16.8025 5.34252 15.4975 4.63127 15.515 3.20377C15.5362 1.37627 17.2675 0.150024 19.7262 0.150024H19.725Z" fill="#3D93F8"/>
</svg>
