<svg width="30" height="10" viewBox="0 0 30 10" fill="none" xmlns="http://www.w3.org/2000/svg">
<path d="M27.7775 9.70999L27.4963 8.30374H24.3538L23.8538 9.69999L21.335 9.70499C22.5341 6.82142 23.7358 3.93892 24.94 1.05749C25.145 0.568744 25.5088 0.319994 26.045 0.322494C26.455 0.326244 27.1237 0.326244 28.0525 0.323744L30 9.70624L27.7775 9.70999ZM25.0612 6.37749H27.0863L26.33 2.85249L25.0612 6.37749ZM8.825 0.321244L11.3575 0.323744L7.4425 9.71124L4.87875 9.70874C4.23406 7.22914 3.59739 4.74746 2.96875 2.26374C2.84375 1.76874 2.59625 1.42249 2.12 1.25874C1.69625 1.11249 0.99 0.887494 0 0.581244V0.324994H4.04625C4.74625 0.324994 5.155 0.663744 5.28625 1.35874C5.41875 2.05499 5.75125 3.82749 6.28625 6.67624L8.825 0.321244ZM14.8375 0.323744L12.835 9.70874L10.425 9.70624L12.425 0.321244L14.8375 0.323744ZM19.725 0.149994C20.4462 0.149994 21.355 0.374994 21.8775 0.581244L21.455 2.52749C20.9825 2.33749 20.205 2.08124 19.5513 2.08999C18.6012 2.10624 18.0138 2.50499 18.0138 2.88749C18.0138 3.50999 19.0337 3.82374 20.0837 4.50374C21.2825 5.27874 21.44 5.97499 21.425 6.73124C21.4087 8.30124 20.0837 9.84999 17.2887 9.84999C16.0138 9.83124 15.5538 9.72374 14.5138 9.35499L14.9538 7.32374C16.0125 7.76749 16.4613 7.90874 17.3662 7.90874C18.195 7.90874 18.9062 7.57374 18.9125 6.98999C18.9175 6.57499 18.6625 6.36874 17.7325 5.85624C16.8025 5.34249 15.4975 4.63124 15.515 3.20374C15.5362 1.37624 17.2675 0.149994 19.7262 0.149994H19.725Z" fill="#FEFEFE"/>
</svg>
